# xmcd
#
# Track frame offsets: 
#        150
#        14720
#        32942
#        46180
#        59305
#        71940
#        90795
#        103762
#        116457
#        128827
#        146675
#        166145
#        179605
#        192667
#        204655
#        221660
#        234212
#        247657
#
# Disc length: 3438 seconds
#
# Revision: 5
# Processed by: cddbd v1.5.2PL0 Copyright (c) Steve Scherf et al.
# Submitted via: ExactAudioCopy v1.0b3
#
DISCID=030d6c12
DTITLE=Gaye, Marvin - 18 Greatest Hits
DYEAR=1988
DGENRE=Motown
TTITLE0=I Heard It Through The Grapevine
TTITLE1=Let's Get It On
TTITLE2=Too Busy Thinking About My Baby
TTITLE3=How Sweet It Is (To Be Loved By You)
TTITLE4=Gaye, Marvin with Tammi Terrell - You're All I Need To Get By
TTITLE5=Got To Give It Up (Part1)
TTITLE6=Gaye, Marvin with Diana Ross - You Are Everything
TTITLE7=Can I Get A Witness
TTITLE8=I'll Be Doggone
TTITLE9=What's Going On
TTITLE10=Abraham, Martin And John
TTITLE11=Gaye, Marvin with Kim Weston - It Takes Two
TTITLE12=Gaye, Marvin with Diana Ross - Stop, Look, Listen (To Your He
TTITLE12=art)
TTITLE13=Chained
TTITLE14=Trouble Man
TTITLE15=Gaye, Marvin with Tammi Terrell - You Ain't Livin' Till You'r
TTITLE15=e Lovin'
TTITLE16=Gaye, Marvin with Tammi Terrell - The Onion Song
TTITLE17=Wherever I Lay My Hat (That's My Home)
EXTD=
EXTT0=
EXTT1=
EXTT2=
EXTT3=
EXTT4=
EXTT5=
EXTT6=
EXTT7=
EXTT8=
EXTT9=
EXTT10=
EXTT11=
EXTT12=
EXTT13=
EXTT14=
EXTT15=
EXTT16=
EXTT17=
PLAYORDER=
